<svg width="24" height="24" viewBox="0 0 24 24" fill="none" xmlns="http://www.w3.org/2000/svg">
<g id="account_circle">
<mask id="mask0_15_177" style="mask-type:alpha" maskUnits="userSpaceOnUse" x="0" y="0" width="24" height="24">
<rect id="Bounding box" width="24" height="24" fill="#D9D9D9"/>
</mask>
<g mask="url(#mask0_15_177)">
<path id="account_circle_2" d="M5.69809 17.1173C6.63142 16.4366 7.62405 15.9135 8.67596 15.5481C9.72788 15.1827 10.8359 15 12 15C13.1641 15 14.2721 15.1827 15.324 15.5481C16.3759 15.9135 17.3686 16.4366 18.3019 17.1173C18.9237 16.3507 19.3872 15.5471 19.6923 14.7068C19.9974 13.8664 20.15 12.9641 20.15 12C20.15 9.76667 19.35 7.85 17.75 6.25C16.15 4.65 14.2333 3.85 12 3.85C9.76665 3.85 7.84999 4.65 6.24999 6.25C4.64999 7.85 3.84999 9.76667 3.84999 12C3.84999 12.9641 4.00255 13.8664 4.30769 14.7068C4.61282 15.5471 5.07629 16.3507 5.69809 17.1173ZM12.002 13.35C10.9212 13.35 10.009 12.9789 9.26539 12.2366C8.5218 11.4944 8.15001 10.5828 8.15001 9.502C8.15001 8.42119 8.52114 7.50899 9.26339 6.7654C10.0056 6.02182 10.9172 5.65003 11.998 5.65003C13.0788 5.65003 13.991 6.02115 14.7346 6.7634C15.4782 7.50564 15.85 8.41717 15.85 9.498C15.85 10.5788 15.4788 11.491 14.7366 12.2346C13.9944 12.9782 13.0828 13.35 12.002 13.35ZM12 22.3C10.5974 22.3 9.26796 22.0289 8.01161 21.4867C6.75526 20.9445 5.66232 20.2063 4.73279 19.2723C3.80325 18.3382 3.06541 17.2432 2.51926 15.9875C1.9731 14.7317 1.70001 13.3984 1.70001 11.9875C1.70001 10.5766 1.9731 9.24744 2.51926 8.00003C3.06541 6.75259 3.80325 5.66184 4.73279 4.72775C5.66232 3.79369 6.75526 3.05555 8.01161 2.51335C9.26796 1.97114 10.6016 1.70003 12.0125 1.70003C13.4234 1.70003 14.7525 1.97311 16 2.51928C17.2474 3.06543 18.3362 3.80356 19.2663 4.73368C20.1964 5.66381 20.9346 6.75192 21.4807 7.998C22.0269 9.24409 22.3 10.5781 22.3 12C22.3 13.4026 22.0289 14.732 21.4866 15.9884C20.9444 17.2447 20.2063 18.3377 19.2722 19.2672C18.3382 20.1967 17.2481 20.9346 16.002 21.4807C14.7559 22.0269 13.4219 22.3 12 22.3Z" fill="#1C1B1F"/>
</g>
</g>
</svg>
