<svg width="24" height="24" viewBox="0 0 24 24" fill="none" xmlns="http://www.w3.org/2000/svg">
<g id="lock">
<mask id="mask0_15_206" style="mask-type:alpha" maskUnits="userSpaceOnUse" x="0" y="0" width="24" height="24">
<rect id="Bounding box" width="24" height="24" fill="#D9D9D9"/>
</mask>
<g mask="url(#mask0_15_206)">
<path id="lock_2" d="M6.2077 22.5999C5.51058 22.5999 4.92669 22.3646 4.45603 21.8939C3.98534 21.4233 3.75 20.8394 3.75 20.1423V10.5577C3.75 9.8606 3.98534 9.27671 4.45603 8.80604C4.92669 8.33536 5.51058 8.10002 6.2077 8.10002H6.8V6.10002C6.8 4.63465 7.30607 3.39332 8.3182 2.37602C9.33035 1.35872 10.5576 0.850067 12 0.850067C13.4423 0.850067 14.6696 1.35872 15.6818 2.37602C16.6939 3.39332 17.2 4.63465 17.2 6.10002V8.10002H17.7922C18.4894 8.10002 19.0733 8.33536 19.5439 8.80604C20.0146 9.27671 20.25 9.8606 20.25 10.5577V20.1423C20.25 20.8394 20.0146 21.4233 19.5439 21.8939C19.0733 22.3646 18.4894 22.5999 17.7922 22.5999H6.2077ZM12.004 17.5C12.5872 17.5 13.0823 17.2951 13.4894 16.8854C13.8964 16.4757 14.1 15.9793 14.1 15.396C14.1 14.8128 13.8951 14.3177 13.4854 13.9106C13.0757 13.5036 12.5792 13.3 11.996 13.3C11.4128 13.3 10.9176 13.5049 10.5106 13.9146C10.1035 14.3243 9.9 14.8208 9.9 15.404C9.9 15.9872 10.1049 16.4824 10.5146 16.8894C10.9243 17.2965 11.4207 17.5 12.004 17.5ZM8.94998 8.10002H15.05V6.10002C15.05 5.25002 14.7532 4.52085 14.1595 3.91252C13.5659 3.30418 12.8451 3.00002 11.997 3.00002C11.149 3.00002 10.4291 3.30418 9.83748 3.91252C9.24581 4.52085 8.94998 5.25002 8.94998 6.10002V8.10002Z" fill="#1C1B1F"/>
</g>
</g>
</svg>
