<svg width="70" height="65" viewBox="0 0 70 65" fill="none" xmlns="http://www.w3.org/2000/svg">
<path id="Subtract" fill-rule="evenodd" clip-rule="evenodd" d="M0.480156 61.1805C0.47165 61.3277 0.463271 61.4752 0.455017 61.6229C14.0576 64.36 25.5571 65.4077 34.9536 64.7662C44.35 64.1247 51.6366 61.8024 56.8133 57.7995C64.4198 51.9177 68.6753 44.6954 69.5798 36.1326C70.4844 27.5698 68.3291 19.9161 63.1139 13.1716C57.8987 6.42717 51.0336 2.41536 42.5187 1.13622C38.1781 0.484133 33.9555 0.762464 29.851 1.97122C30.5624 3.89874 31.0885 5.93528 31.4295 8.08083C34.653 7.11349 37.9792 6.83708 41.4083 7.25162C48.2316 8.07649 53.8293 11.316 58.2014 16.9702C62.5736 22.6244 64.3004 28.8572 63.3818 35.6685C62.4632 42.4798 58.9993 48.2087 52.9902 52.8553C49.0052 55.9368 43.0394 57.8167 35.0929 58.4952C27.1462 59.1736 17.7935 58.5203 7.03452 56.5353C7.06776 56.0738 7.10268 55.6154 7.13927 55.1599C5.05162 57.135 2.83191 59.1419 0.480156 61.1805Z" fill="#8598A9"/>
</svg>
