<svg width="63" height="80" viewBox="0 0 63 80" fill="none" xmlns="http://www.w3.org/2000/svg">
<g id="Subtract">
<path d="M7.86052 53.838C13.1009 61.6638 20.9642 70.1199 31.4502 79.2065C31.4602 79.1978 31.4702 79.1891 31.4802 79.1805C32.2691 65.5265 34.1402 54.2809 37.0936 45.4435C40.0789 36.5108 44.1599 30.043 49.3366 26.0401C53.0656 23.1566 56.9037 21.1337 60.851 19.9712C59.302 15.774 56.8748 12.0937 53.5695 8.93031C47.3489 2.97677 39.9758 0 31.4502 0C22.9246 0 15.5515 2.97677 9.33094 8.93031C3.11031 14.8839 0 22.6683 0 32.2835C0 38.8274 2.62017 46.0122 7.86052 53.838Z" fill="#4E5E73"/>
<path d="M62.4296 26.0808C59.2389 27.0384 56.1489 28.6728 53.1597 30.9842C49.1747 34.0657 45.8541 39.3665 43.1979 46.8866C40.654 54.0888 38.9678 62.8466 38.1393 73.1599C45.3468 66.341 50.9803 59.9004 55.0399 53.838C60.2802 46.0122 62.9004 38.8274 62.9004 32.2835C62.9004 30.1236 62.7435 28.056 62.4296 26.0808Z" fill="#4E5E73"/>
</g>
</svg>
